<?xml version="1.0" encoding="UTF-8"?>
<svg version="1.1" xmlns="http://www.w3.org/2000/svg" width="514" height="214">
<path d="M0 0 C3.14838549 1.98460458 4.77211948 3.03003501 5.63923645 6.72088623 C5.6492292 8.27975555 5.6492292 8.27975555 5.65942383 9.87011719 C5.67906693 11.05103943 5.69871002 12.23196167 5.71894836 13.44866943 C5.71304939 15.35353119 5.71304939 15.35353119 5.70703125 17.296875 C5.72215256 18.60078186 5.73727386 19.90468872 5.75285339 21.24810791 C5.79268921 24.70711894 5.80289271 28.16560354 5.80688477 31.62481689 C5.81621919 35.15759232 5.85363443 38.69005878 5.88867188 42.22265625 C5.95323233 49.1483936 5.98648493 56.07398009 6 63 C11.53580132 60.78742526 11.53580132 60.78742526 16.4375 57.46875 C17.30048706 56.75477051 17.30048706 56.75477051 18.1809082 56.02636719 C18.7812085 55.52266602 19.38150879 55.01896484 20 54.5 C20.65895264 53.97825195 21.31790527 53.45650391 21.99682617 52.91894531 C25.23730281 50.35007205 28.27404789 47.77478983 31.11328125 44.765625 C39.22457513 36.79581452 47.47991357 36.13436937 58.44638062 36.16101074 C76.36157552 36.36157552 76.36157552 36.36157552 79 39 C79.125 41.71484375 79.125 41.71484375 78 45 C75.59674216 47.54136713 72.82780329 49.51707793 70 51.5625 C69.20215088 52.16239746 68.40430176 52.76229492 67.58227539 53.38037109 C65.06634577 55.26960507 62.53500809 57.13646582 60 59 C57.56284125 60.80133682 55.12944211 62.60701263 52.70507812 64.42553711 C51.21821993 65.53988033 49.7236172 66.64398022 48.22070312 67.73657227 C47.54845703 68.23858154 46.87621094 68.74059082 46.18359375 69.2578125 C45.59118896 69.6923877 44.99878418 70.12696289 44.38842773 70.57470703 C42.66717866 72.34165834 42.24859301 73.55910263 42 76 C43.6309489 78.20395723 43.6309489 78.20395723 46 80.25 C49.61229719 83.66718855 52.95676785 87.14180361 56.1953125 90.91015625 C59.72795226 95.00098367 63.37831725 98.98810228 67 103 C69.24210158 105.49036196 71.48321261 107.98113643 73.7109375 110.484375 C75.3052435 112.23647921 76.93902621 113.95312571 78.6015625 115.640625 C79.43429687 116.50171875 80.26703125 117.3628125 81.125 118.25 C81.89070313 119.01828125 82.65640625 119.7865625 83.4453125 120.578125 C85 123 85 123 84.8671875 126.234375 C84.58101563 127.14703125 84.29484375 128.0596875 84 129 C75.31224169 133.34387916 58.45364034 131.57662364 49 130 C43.35741921 127.47576855 40.22315451 123.04245245 37.13085938 117.85107422 C35.44234117 115.0871828 33.35133274 112.70743108 31.25 110.25 C30.54875 109.38246094 29.8475 108.51492187 29.125 107.62109375 C26.85973574 104.82699022 24.58401986 102.04959894 22.25 99.3125 C21.20585938 98.06919922 21.20585938 98.06919922 20.140625 96.80078125 C18.14122508 94.86520927 18.14122508 94.86520927 15.671875 94.35546875 C11.31765195 95.40582957 8.49381538 97.23461096 6 101 C5.07860242 105.40347535 5.15663173 109.70336595 5.25 114.1875 C5.26783305 116.5350943 5.27361473 118.88282032 5.265625 121.23046875 C5.29317871 122.78350708 5.29317871 122.78350708 5.32128906 124.36791992 C5 127 5 127 3.7898407 128.63726807 C1.43472294 130.43038528 -0.01407068 130.39783981 -2.95874023 130.43579102 C-4.47062172 130.46450035 -4.47062172 130.46450035 -6.01304626 130.49378967 C-7.10057693 130.49712814 -8.1881076 130.50046661 -9.30859375 130.50390625 C-10.4268605 130.51389145 -11.54512726 130.52387665 -12.69728088 130.53416443 C-15.06353042 130.54936001 -17.4298443 130.55638978 -19.79614258 130.5559082 C-23.42050803 130.56246924 -27.0421352 130.61693948 -30.66601562 130.67382812 C-32.96353228 130.68263003 -35.26106197 130.68858435 -37.55859375 130.69140625 C-38.64410019 130.7129628 -39.72960663 130.73451935 -40.8480072 130.75672913 C-48.20422571 130.68957565 -48.20422571 130.68957565 -50.59524536 128.61764526 C-51.71508789 126.95678711 -51.71508789 126.95678711 -53 124 C-57.08014766 124.51001846 -60.11267802 125.98429492 -63.64453125 127.96484375 C-75.20388324 133.04482431 -91.93557187 133.07714826 -103.875 129.375 C-111.97659636 126.03559018 -118.5199678 120.79066707 -125 115 C-125 115.66 -125 116.32 -125 117 C-132.18948455 121.52712855 -139.22574243 125.42178398 -147.375 127.9375 C-148.01566406 128.13625732 -148.65632813 128.33501465 -149.31640625 128.53979492 C-168.22185548 134.0287095 -187.72059108 130.74906781 -205 122 C-207.76693351 120.43288722 -210.36802558 118.78974261 -213 117 C-213.52207031 117.44730469 -214.04414063 117.89460938 -214.58203125 118.35546875 C-226.32216585 127.99841644 -241.02955303 132.91906237 -256.328125 132.27734375 C-271.73971105 130.67760309 -285.4157916 127.04072722 -296.2890625 115.13671875 C-299.69992581 110.87703329 -301.48593303 107.50724102 -301 102 C-295.68022026 99.39670353 -290.93399001 98.28099674 -285 98 C-283.68257813 97.93554688 -282.36515625 97.87109375 -281.0078125 97.8046875 C-279.56780943 97.76206067 -278.12769584 97.72302234 -276.6875 97.6875 C-275.64638062 97.64266479 -275.64638062 97.64266479 -274.58422852 97.59692383 C-271.12227171 97.55781755 -269.39694493 97.66276644 -266.71484375 99.94140625 C-266.14894531 100.62074219 -265.58304688 101.30007812 -265 102 C-256.07973133 105.56810747 -247.69547105 104.52859695 -239 101 C-239.33 99.35 -239.66 97.7 -240 96 C-252.29170671 92.28616914 -252.29170671 92.28616914 -265 91 C-265.33 91.33 -265.66 91.66 -266 92 C-267.34983748 92.12185143 -268.70574701 92.17766831 -270.06079102 92.20532227 C-270.92160782 92.22526749 -271.78242462 92.24521271 -272.66932678 92.26576233 C-273.60473801 92.28247482 -274.54014923 92.29918732 -275.50390625 92.31640625 C-276.45692123 92.33718735 -277.40993622 92.35796844 -278.39183044 92.37937927 C-281.4486441 92.44498177 -284.50554656 92.50380918 -287.5625 92.5625 C-289.62956663 92.60567506 -291.69662414 92.64928901 -293.76367188 92.69335938 C-298.84235595 92.80067401 -303.9211297 92.90191091 -309 93 C-308.98783195 93.9248394 -308.98783195 93.9248394 -308.97541809 94.86836243 C-308.96910873 95.67790878 -308.96279938 96.48745514 -308.95629883 97.3215332 C-308.94413078 98.5248101 -308.94413078 98.5248101 -308.93171692 99.75239563 C-309.11142967 105.66781644 -312.26897672 112.21245856 -316.29296875 116.50390625 C-329.27648649 127.88305337 -345.78997831 133.00767461 -363 132 C-379.14544581 130.53032353 -392.30094877 125.21909535 -402.80859375 112.67578125 C-405.10577946 109.44465775 -406.09056306 107.78487987 -405.625 103.75 C-405.41875 102.8425 -405.2125 101.935 -405 101 C-397.43519913 98.0904612 -389.762102 97.87839419 -381.75 97.6875 C-381.06437988 97.65769043 -380.37875977 97.62788086 -379.67236328 97.59716797 C-374.75192297 97.54072162 -372.53336917 98.66889883 -369 102 C-362.18735785 105.16867077 -354.88800188 104.83030456 -347.875 102.5 C-346.57757135 102.01514777 -345.28341826 101.52080741 -344 101 C-344 99.35 -344 97.7 -344 96 C-346.37420649 95.39257315 -348.74925541 94.78886204 -351.125 94.1875 C-351.85058105 94.00227783 -352.57616211 93.81705566 -353.32373047 93.6262207 C-357.90351304 92.47303445 -362.47653846 91.53267482 -367.125 90.6875 C-378.74243876 88.20752163 -389.31092946 83.1774568 -396 73 C-399.07462659 66.7998424 -399.27817016 59.06118106 -397.20703125 52.48046875 C-395.58733566 49.13558015 -393.82882901 46.45016686 -391 44 C-390.34 44 -389.68 44 -389 44 C-389 43.34 -389 42.68 -389 42 C-373.03831531 33.50829292 -357.59560623 29.76826644 -339.64453125 35.0234375 C-331.19822566 38.14245729 -322.9437102 42.99405691 -318.5 51.0625 C-317.31790526 53.70453225 -316.99652727 54.92012728 -317.125 57.875 C-318 60 -318 60 -320 62 C-329.34967847 63.41783393 -344.49838103 65.460726 -353 61 C-355.59154919 60.75970041 -355.59154919 60.75970041 -358.25 60.875 C-359.14203125 60.89304688 -360.0340625 60.91109375 -360.953125 60.9296875 C-361.62859375 60.95289063 -362.3040625 60.97609375 -363 61 C-362.67 61.66 -362.34 62.32 -362 63 C-357.9327423 64.22832436 -353.72932359 64.93172087 -349.5625 65.75 C-348.39138672 65.99621094 -347.22027344 66.24242188 -346.01367188 66.49609375 C-344.33821289 66.83060547 -344.33821289 66.83060547 -342.62890625 67.171875 C-341.0831189 67.4827002 -341.0831189 67.4827002 -339.50610352 67.79980469 C-338.67908936 67.86586914 -337.8520752 67.93193359 -337 68 C-336.34 67.34 -335.68 66.68 -335 66 C-333.16500854 65.75949097 -333.16500854 65.75949097 -330.91748047 65.77294922 C-330.07675995 65.77310028 -329.23603943 65.77325134 -328.36984253 65.77340698 C-327.00727829 65.78889084 -327.00727829 65.78889084 -325.6171875 65.8046875 C-324.22308151 65.80893234 -324.22308151 65.80893234 -322.80081177 65.81326294 C-319.8254115 65.82447931 -316.85030965 65.8495864 -313.875 65.875 C-311.86068142 65.88502792 -309.84635814 65.8941541 -307.83203125 65.90234375 C-302.88790544 65.92442339 -297.94400335 65.95896307 -293 66 C-293.01740234 65.25524414 -293.03480469 64.51048828 -293.05273438 63.74316406 C-293.06626953 62.76057617 -293.07980469 61.77798828 -293.09375 60.765625 C-293.11115234 59.79399414 -293.12855469 58.82236328 -293.14648438 57.82128906 C-292.82242731 51.57995008 -289.81793198 47.49461208 -285.375 43.3125 C-273.33513615 33.52871453 -260.0424798 31.88096001 -245 33 C-232.62311605 34.81263289 -223.28276486 39.67610548 -215 49 C-214.10539063 48.46890625 -213.21078125 47.9378125 -212.2890625 47.390625 C-191.80952974 35.37058565 -171.55629511 30.65443179 -148.00341797 36.42578125 C-134.7857875 40.2142125 -134.7857875 40.2142125 -131 44 C-130.71125 43.030625 -130.4225 42.06125 -130.125 41.0625 C-129 38 -129 38 -127 37 C-122.87716907 36.76621115 -118.7527292 36.77163469 -114.6237793 36.75976562 C-112.57364437 36.7500528 -110.52450926 36.71902555 -108.47460938 36.6875 C-107.18490234 36.68234375 -105.89519531 36.6771875 -104.56640625 36.671875 C-102.78665405 36.65785645 -102.78665405 36.65785645 -100.97094727 36.64355469 C-98 37 -98 37 -96.33737183 38.20385742 C-94.54912822 40.60553841 -94.62796771 42.11541148 -94.63110352 45.09472656 C-94.62077843 46.65214569 -94.62077843 46.65214569 -94.61024475 48.24102783 C-94.61640305 49.3628949 -94.62256134 50.48476196 -94.62890625 51.640625 C-94.6115186 54.01432432 -94.59393427 56.38802221 -94.57617188 58.76171875 C-94.56610954 62.50539854 -94.56249954 66.24898305 -94.56420898 69.99267578 C-94.56063264 73.60478108 -94.53325774 77.21615081 -94.50390625 80.828125 C-94.51208878 81.94189514 -94.5202713 83.05566528 -94.52870178 84.20318604 C-94.45398317 92.0274584 -93.36087628 96.63912372 -87.6875 102.3125 C-81.69708411 106.07392393 -75.39281438 106.94476542 -68.51171875 105.46484375 C-62.32606891 103.78784535 -58.02523471 101.89319244 -54.25 96.5 C-52.29280184 92.58560367 -51.8728994 89.25067014 -51.82641602 84.89599609 C-51.81292618 83.88169525 -51.79943634 82.86739441 -51.78553772 81.82235718 C-51.77509933 80.73371368 -51.76466095 79.64507019 -51.75390625 78.5234375 C-51.72098858 76.22135007 -51.6877766 73.91926683 -51.65429688 71.6171875 C-51.60673908 67.98505344 -51.5622627 64.35293884 -51.52319336 60.72070312 C-51.48364004 57.21727391 -51.43207834 53.71418268 -51.37890625 50.2109375 C-51.3704921 49.11824554 -51.36207794 48.02555359 -51.35340881 46.89974976 C-51.33676682 45.89175323 -51.32012482 44.88375671 -51.30297852 43.84521484 C-51.29267105 42.95571136 -51.28236359 42.06620789 -51.27174377 41.14974976 C-51 39 -51 39 -49 37 C-46.93701172 36.77294922 -46.93701172 36.77294922 -44.4296875 36.8046875 C-43.53378906 36.81113281 -42.63789063 36.81757812 -41.71484375 36.82421875 C-40.77769531 36.84097656 -39.84054687 36.85773438 -38.875 36.875 C-37.93011719 36.88402344 -36.98523438 36.89304688 -36.01171875 36.90234375 C-33.67422708 36.92595478 -31.33723877 36.95888484 -29 37 C-29.04713135 35.80455566 -29.04713135 35.80455566 -29.09521484 34.58496094 C-29.21994429 30.97359613 -29.29797831 27.36268385 -29.375 23.75 C-29.42527344 22.49574219 -29.47554688 21.24148437 -29.52734375 19.94921875 C-29.67540816 10.71987076 -29.67540816 10.71987076 -26.5078125 7.34375 C-25.35023438 6.9003125 -24.19265625 6.456875 -23 6 C-22.34306152 5.72317383 -21.68612305 5.44634766 -21.00927734 5.16113281 C-18.86111314 4.27832561 -16.69563335 3.50631658 -14.5 2.75 C-13.76652344 2.481875 -13.03304688 2.21375 -12.27734375 1.9375 C-8.10871942 0.47587143 -4.45935666 -0.67641927 0 0 Z M-258 60 C-258.33 60.99 -258.66 61.98 -259 63 C-248.8311861 66.07863173 -238.42026556 67.99557272 -228 70 C-225.7986134 66.19572508 -225.7986134 66.19572508 -225 62 C-225.55461914 62.01047363 -226.10923828 62.02094727 -226.68066406 62.03173828 C-229.20372959 62.07342004 -231.72672253 62.09936438 -234.25 62.125 C-235.55904297 62.15013672 -235.55904297 62.15013672 -236.89453125 62.17578125 C-237.73886719 62.18222656 -238.58320313 62.18867187 -239.453125 62.1953125 C-240.22817383 62.20578613 -241.00322266 62.21625977 -241.80175781 62.22705078 C-244.27055978 61.97205458 -245.82658073 61.15795075 -248 60 C-250.59154919 59.75970041 -250.59154919 59.75970041 -253.25 59.875 C-254.58804688 59.90207031 -254.58804688 59.90207031 -255.953125 59.9296875 C-256.62859375 59.95289063 -257.3040625 59.97609375 -258 60 Z M-193 71 C-196.54646538 76.0336928 -196.70976435 81.03992402 -196 87 C-193.48137191 94.02564677 -188.29557274 98.27404879 -182 102 C-173.96696883 105.16109407 -164.78286063 105.37988627 -156.625 102.4375 C-150.55002679 99.60518135 -145.82028986 95.61666667 -142 90.125 C-140.30236804 84.81990012 -140.30236804 80.18009988 -142 74.875 C-147.27222533 67.29617609 -153.9936538 62.98703983 -163 61 C-174.64617638 59.63894083 -184.96700102 62.11907335 -193 71 Z " fill="#6CB282" transform="translate(417,41)"/>
<path d="M0 0 C3.49061139 3.15700983 5.793119 6.67900143 7.1875 11.1875 C7.03390012 14.72029727 6.68938618 15.68561382 4.1875 18.1875 C-5.16217847 19.60533393 -20.31088103 21.648226 -28.8125 17.1875 C-31.40404919 16.94720041 -31.40404919 16.94720041 -34.0625 17.0625 C-35.40054688 17.08957031 -35.40054688 17.08957031 -36.765625 17.1171875 C-37.44109375 17.14039062 -38.1165625 17.16359375 -38.8125 17.1875 C-38.3175 18.1775 -38.3175 18.1775 -37.8125 19.1875 C-33.7452423 20.41582436 -29.54182359 21.11922087 -25.375 21.9375 C-24.20388672 22.18371094 -23.03277344 22.42992187 -21.82617188 22.68359375 C-20.15071289 23.01810547 -20.15071289 23.01810547 -18.44140625 23.359375 C-17.41088135 23.5665918 -16.38035645 23.77380859 -15.31860352 23.98730469 C-14.07808228 24.08640137 -14.07808228 24.08640137 -12.8125 24.1875 C-11.8225 23.1975 -11.8225 23.1975 -10.8125 22.1875 C-8.97750854 21.94699097 -8.97750854 21.94699097 -6.72998047 21.96044922 C-5.46889969 21.96067581 -5.46889969 21.96067581 -4.18234253 21.96090698 C-2.81977829 21.97639084 -2.81977829 21.97639084 -1.4296875 21.9921875 C-0.03558151 21.99643234 -0.03558151 21.99643234 1.38668823 22.00076294 C4.3620885 22.01197931 7.33719035 22.0370864 10.3125 22.0625 C12.32681858 22.07252792 14.34114186 22.0816541 16.35546875 22.08984375 C21.29959456 22.11192339 26.24349665 22.14646307 31.1875 22.1875 C31.17009766 21.44274414 31.15269531 20.69798828 31.13476562 19.93066406 C31.12123047 18.94807617 31.10769531 17.96548828 31.09375 16.953125 C31.07634766 15.98149414 31.05894531 15.00986328 31.04101562 14.00878906 C31.36507269 7.76745008 34.36956802 3.68211208 38.8125 -0.5 C50.85236385 -10.28378547 64.1450202 -11.93153999 79.1875 -10.8125 C92.27109308 -8.89636738 101.39986317 -3.55531475 110.1875 6.1875 C109.8575 7.1775 109.5275 8.1675 109.1875 9.1875 C108.5275 9.1875 107.8675 9.1875 107.1875 9.1875 C106.8471875 10.0228125 106.8471875 10.0228125 106.5 10.875 C104.46535041 14.45985879 102.06770963 17.64551787 97.9921875 18.8203125 C94.51751726 19.27521362 91.12939613 19.35759982 87.625 19.375 C86.32433594 19.38917969 85.02367187 19.40335938 83.68359375 19.41796875 C80.35816725 19.19875069 79.0151146 18.69911787 76.1875 17.1875 C73.59595081 16.94720041 73.59595081 16.94720041 70.9375 17.0625 C69.59945312 17.08957031 69.59945312 17.08957031 68.234375 17.1171875 C67.22117188 17.15199219 67.22117188 17.15199219 66.1875 17.1875 C65.8575 17.8475 65.5275 18.5075 65.1875 19.1875 C65.94893311 19.32849121 66.71036621 19.46948242 67.49487305 19.61474609 C70.95592537 20.2586996 74.41545198 20.9105153 77.875 21.5625 C79.67227539 21.89507812 79.67227539 21.89507812 81.50585938 22.234375 C82.66279297 22.45351562 83.81972656 22.67265625 85.01171875 22.8984375 C86.60632935 23.19693604 86.60632935 23.19693604 88.2331543 23.50146484 C91.04294619 24.15393284 93.54660925 25.03891534 96.1875 26.1875 C96.16655273 26.74099121 96.14560547 27.29448242 96.12402344 27.86474609 C95.57744288 44.48702177 97.48820019 53.9836413 108.1875 67.1875 C108.78433594 67.70441406 109.38117188 68.22132813 109.99609375 68.75390625 C111.1875 70.1875 111.1875 70.1875 111.15625 72.15625 C108.36796138 78.00266162 99.68847109 81.94331653 93.86328125 84.34375 C76.51161032 89.8152258 58.37384361 89.80831254 41.75 82.0625 C33.89851635 77.82305734 26.16938984 71.93437687 23.1875 63.1875 C23 60.3125 23 60.3125 23.1875 58.1875 C28.50727974 55.58420353 33.25350999 54.46849674 39.1875 54.1875 C40.50492187 54.12304688 41.82234375 54.05859375 43.1796875 53.9921875 C44.61969057 53.94956067 46.05980416 53.91052234 47.5 53.875 C48.54111938 53.83016479 48.54111938 53.83016479 49.60327148 53.78442383 C53.06522829 53.74531755 54.79055507 53.85026644 57.47265625 56.12890625 C58.03855469 56.80824219 58.60445312 57.48757812 59.1875 58.1875 C68.10776867 61.75560747 76.49202895 60.71609695 85.1875 57.1875 C84.8575 55.5375 84.5275 53.8875 84.1875 52.1875 C71.89579329 48.47366914 71.89579329 48.47366914 59.1875 47.1875 C58.8575 47.5175 58.5275 47.8475 58.1875 48.1875 C56.83766252 48.30935143 55.48175299 48.36516831 54.12670898 48.39282227 C53.26589218 48.41276749 52.40507538 48.43271271 51.51817322 48.45326233 C50.58276199 48.46997482 49.64735077 48.48668732 48.68359375 48.50390625 C47.73057877 48.52468735 46.77756378 48.54546844 45.79566956 48.56687927 C42.7388559 48.63248177 39.68195344 48.69130918 36.625 48.75 C34.55793337 48.79317506 32.49087586 48.83678901 30.42382812 48.88085938 C25.34514405 48.98817401 20.2663703 49.08941091 15.1875 49.1875 C15.19966805 50.1123394 15.19966805 50.1123394 15.21208191 51.05586243 C15.21839127 51.86540878 15.22470062 52.67495514 15.23120117 53.5090332 C15.24336922 54.7123101 15.24336922 54.7123101 15.25578308 55.93989563 C15.07607033 61.85531644 11.91852328 68.39995856 7.89453125 72.69140625 C-5.08898649 84.07055337 -21.60247831 89.19517461 -38.8125 88.1875 C-54.95794581 86.71782353 -68.11344877 81.40659535 -78.62109375 68.86328125 C-80.91827946 65.63215775 -81.90306306 63.97237987 -81.4375 59.9375 C-81.23125 59.03 -81.025 58.1225 -80.8125 57.1875 C-73.24769913 54.2779612 -65.574602 54.06589419 -57.5625 53.875 C-56.87687988 53.84519043 -56.19125977 53.81538086 -55.48486328 53.78466797 C-50.56442297 53.72822162 -48.34586917 54.85639883 -44.8125 58.1875 C-37.99985785 61.35617077 -30.70050188 61.01780456 -23.6875 58.6875 C-22.39007135 58.20264777 -21.09591826 57.70830741 -19.8125 57.1875 C-19.8125 55.5375 -19.8125 53.8875 -19.8125 52.1875 C-22.18670649 51.58007315 -24.56175541 50.97636204 -26.9375 50.375 C-27.66308105 50.18977783 -28.38866211 50.00455566 -29.13623047 49.8137207 C-33.71601304 48.66053445 -38.28903846 47.72017482 -42.9375 46.875 C-54.55493876 44.39502163 -65.12342946 39.3649568 -71.8125 29.1875 C-74.88712659 22.9873424 -75.09067016 15.24868106 -73.01953125 8.66796875 C-71.39983566 5.32308015 -69.64132901 2.63766686 -66.8125 0.1875 C-66.1525 0.1875 -65.4925 0.1875 -64.8125 0.1875 C-64.8125 -0.4725 -64.8125 -1.1325 -64.8125 -1.8125 C-43.57470374 -13.11112845 -20.16122014 -15.7189174 0 0 Z " fill="#4186C4" transform="translate(92.8125,84.8125)"/>
<path d="M0 0 C3.14838549 1.98460458 4.77211948 3.03003501 5.63923645 6.72088623 C5.64589828 7.76013245 5.65256012 8.79937866 5.65942383 9.87011719 C5.67906693 11.05103943 5.69871002 12.23196167 5.71894836 13.44866943 C5.71501572 14.71857727 5.71108307 15.98848511 5.70703125 17.296875 C5.72215256 18.60078186 5.73727386 19.90468872 5.75285339 21.24810791 C5.79268921 24.70711894 5.80289271 28.16560354 5.80688477 31.62481689 C5.81621919 35.15759232 5.85363443 38.69005878 5.88867188 42.22265625 C5.95323233 49.1483936 5.98648493 56.07398009 6 63 C11.53580132 60.78742526 11.53580132 60.78742526 16.4375 57.46875 C17.01282471 56.99276367 17.58814941 56.51677734 18.1809082 56.02636719 C18.7812085 55.52266602 19.38150879 55.01896484 20 54.5 C20.65895264 53.97825195 21.31790527 53.45650391 21.99682617 52.91894531 C25.23730281 50.35007205 28.27404789 47.77478983 31.11328125 44.765625 C39.22457513 36.79581452 47.47991357 36.13436937 58.44638062 36.16101074 C76.36157552 36.36157552 76.36157552 36.36157552 79 39 C79.125 41.71484375 79.125 41.71484375 78 45 C75.59674216 47.54136713 72.82780329 49.51707793 70 51.5625 C69.20215088 52.16239746 68.40430176 52.76229492 67.58227539 53.38037109 C65.06634577 55.26960507 62.53500809 57.13646582 60 59 C57.56284125 60.80133682 55.12944211 62.60701263 52.70507812 64.42553711 C51.21821993 65.53988033 49.7236172 66.64398022 48.22070312 67.73657227 C47.54845703 68.23858154 46.87621094 68.74059082 46.18359375 69.2578125 C45.59118896 69.6923877 44.99878418 70.12696289 44.38842773 70.57470703 C42.66717866 72.34165834 42.24859301 73.55910263 42 76 C43.6309489 78.20395723 43.6309489 78.20395723 46 80.25 C49.61229719 83.66718855 52.95676785 87.14180361 56.1953125 90.91015625 C59.72795226 95.00098367 63.37831725 98.98810228 67 103 C69.24210158 105.49036196 71.48321261 107.98113643 73.7109375 110.484375 C75.3052435 112.23647921 76.93902621 113.95312571 78.6015625 115.640625 C79.43429687 116.50171875 80.26703125 117.3628125 81.125 118.25 C81.89070313 119.01828125 82.65640625 119.7865625 83.4453125 120.578125 C85 123 85 123 84.8671875 126.234375 C84.58101563 127.14703125 84.29484375 128.0596875 84 129 C75.31224169 133.34387916 58.45364034 131.57662364 49 130 C43.35741921 127.47576855 40.22315451 123.04245245 37.13085938 117.85107422 C35.44234117 115.0871828 33.35133274 112.70743108 31.25 110.25 C30.54875 109.38246094 29.8475 108.51492187 29.125 107.62109375 C26.85973574 104.82699022 24.58401986 102.04959894 22.25 99.3125 C21.55390625 98.48363281 20.8578125 97.65476562 20.140625 96.80078125 C18.14122508 94.86520927 18.14122508 94.86520927 15.671875 94.35546875 C11.31765195 95.40582957 8.49381538 97.23461096 6 101 C5.07860242 105.40347535 5.15663173 109.70336595 5.25 114.1875 C5.26783305 116.5350943 5.27361473 118.88282032 5.265625 121.23046875 C5.28399414 122.26582764 5.30236328 123.30118652 5.32128906 124.36791992 C5 127 5 127 3.81616211 128.84228516 C1.33387455 130.42462252 -0.39275693 130.34155651 -3.32421875 130.29296875 C-4.35224609 130.28330078 -5.38027344 130.27363281 -6.43945312 130.26367188 C-7.51130859 130.23853516 -8.58316406 130.21339844 -9.6875 130.1875 C-10.77095703 130.17396484 -11.85441406 130.16042969 -12.97070312 130.14648438 C-15.64763405 130.11110643 -18.32356838 130.06174189 -21 130 C-20.67 129.01 -20.34 128.02 -20 127 C-19.34 127 -18.68 127 -18 127 C-18.1073291 115.67381712 -18.21992684 104.34770024 -18.33933926 93.02163792 C-18.39461375 87.76306363 -18.44804084 82.50448382 -18.49731445 77.24584961 C-18.54489142 72.17541936 -18.59723154 67.10505903 -18.65294075 62.03471184 C-18.67339462 60.09575061 -18.69210257 58.15677018 -18.70907402 56.21777534 C-18.73305117 53.51173046 -18.76311445 50.80581901 -18.79467773 48.09985352 C-18.8004332 47.28993454 -18.80618866 46.48001556 -18.81211853 45.64555359 C-18.52349669 42.02335774 -18.52349669 42.02335774 -20 39 C-21.51469448 38.76807135 -23.03754562 38.58784762 -24.5625 38.4375 C-25.38878906 38.35371094 -26.21507812 38.26992187 -27.06640625 38.18359375 C-28.02353516 38.09271484 -28.02353516 38.09271484 -29 38 C-29.17406637 33.41714498 -29.28078485 28.83513707 -29.375 24.25 C-29.42527344 22.94804688 -29.47554688 21.64609375 -29.52734375 20.3046875 C-29.67543122 10.7283647 -29.67543122 10.7283647 -26.5078125 7.3125 C-25.35023438 6.879375 -24.19265625 6.44625 -23 6 C-22.34306152 5.72381836 -21.68612305 5.44763672 -21.00927734 5.16308594 C-18.86137394 4.27839111 -16.69607504 3.50646873 -14.5 2.75 C-13.76652344 2.481875 -13.03304688 2.21375 -12.27734375 1.9375 C-8.10871942 0.47587143 -4.45935666 -0.67641927 0 0 Z " fill="#DFDE5E" transform="translate(417,41)"/>
<path d="M0 0 C2.04139438 0.00316307 4.08134303 -0.02031744 6.12255859 -0.0456543 C8.05035156 -0.04662109 8.05035156 -0.04662109 10.01708984 -0.04760742 C11.19722656 -0.05058838 12.37736328 -0.05356934 13.59326172 -0.05664062 C16.54833984 0.31567383 16.54833984 0.31567383 18.2099762 1.52052307 C19.99995343 3.92142435 19.92037247 5.43076653 19.91723633 8.41040039 C19.92411972 9.44867981 19.93100311 10.48695923 19.93809509 11.55670166 C19.9319368 12.67856873 19.9257785 13.80043579 19.91943359 14.95629883 C19.93682125 17.32999815 19.95440557 19.70369603 19.97216797 22.07739258 C19.9822303 25.82107237 19.98584031 29.56465688 19.98413086 33.30834961 C19.9877072 36.9204549 20.01508211 40.53182464 20.04443359 44.14379883 C20.03625107 45.25756897 20.02806854 46.37133911 20.01963806 47.51885986 C20.09435668 55.34313223 21.18746357 59.95479755 26.86083984 65.62817383 C32.85125574 69.38959776 39.15552546 70.26043925 46.03662109 68.78051758 C52.22227093 67.10351918 56.52310514 65.20886627 60.29833984 59.81567383 C62.25553801 55.9012775 62.67544044 52.56634397 62.72192383 48.21166992 C62.73541367 47.19736908 62.7489035 46.18306824 62.76280212 45.13803101 C62.77324051 44.04938751 62.78367889 42.96074402 62.79443359 41.83911133 C62.82735127 39.5370239 62.86056324 37.23494066 62.89404297 34.93286133 C62.94160076 31.30072726 62.98607714 27.66861267 63.02514648 24.03637695 C63.0646998 20.53294774 63.1162615 17.02985651 63.16943359 13.52661133 C63.17784775 12.43391937 63.1862619 11.34122742 63.19493103 10.21542358 C63.21157303 9.20742706 63.22821503 8.19943054 63.24536133 7.16088867 C63.25566879 6.27138519 63.26597626 5.38188171 63.27659607 4.46542358 C63.54833984 2.31567383 63.54833984 2.31567383 65.54833984 0.31567383 C67.46850586 0.07275391 67.46850586 0.07275391 69.80224609 0.08520508 C71.08518555 0.08810547 71.08518555 0.08810547 72.39404297 0.09106445 C73.73885742 0.10943359 73.73885742 0.10943359 75.11083984 0.12817383 C75.9803125 0.12881836 76.84978516 0.12946289 77.74560547 0.13012695 C93.46831451 0.23564849 93.46831451 0.23564849 96.54833984 3.31567383 C96.75217891 6.07045418 96.83151661 8.72512033 96.82299805 11.48144531 C96.82810898 12.32547913 96.83321991 13.16951294 96.83848572 14.03912354 C96.85242349 16.83840969 96.8514218 19.63745078 96.84912109 22.43676758 C96.85300578 24.37728467 96.85733998 26.31780091 96.86210632 28.25831604 C96.86957758 32.32962803 96.86927075 36.40085332 96.86401367 40.47216797 C96.85821842 45.69582628 96.87514702 50.91913009 96.89835835 56.14272976 C96.91307302 60.15153589 96.91397047 64.1602562 96.91084862 68.16908455 C96.91136299 70.09525314 96.91662239 72.02142639 96.92666054 73.94756889 C96.93896358 76.63878443 96.93227034 79.32930386 96.9206543 82.02050781 C96.92829803 82.82009415 96.93594177 83.61968048 96.94381714 84.4434967 C96.89251778 89.8062502 96.89251778 89.8062502 95.20303345 92.30688477 C90.88813354 94.93747681 84.49404757 93.87086728 79.61083984 93.87817383 C78.32242188 93.91491211 77.03400391 93.95165039 75.70654297 93.98950195 C66.47117895 94.03281528 66.47117895 94.03281528 63.77832031 91.94018555 C62.66943359 90.28051758 62.66943359 90.28051758 61.54833984 87.31567383 C57.46819218 87.82569229 54.43566182 89.29996875 50.90380859 91.28051758 C39.34445661 96.36049814 22.61276798 96.39282209 10.67333984 92.69067383 C2.24228058 89.19815655 -3.86265958 84.48105919 -9.45166016 77.31567383 C-8.43845703 75.99116211 -8.43845703 75.99116211 -7.40478516 74.63989258 C1.30400072 63.03251566 6.22258691 53.31556083 4.54833984 38.31567383 C1.91130137 26.73048233 -4.79734617 19.59774271 -13.47509766 11.90551758 C-15.45166016 9.31567383 -15.45166016 9.31567383 -15.92822266 5.63208008 C-15.69232422 3.99045898 -15.69232422 3.99045898 -15.45166016 2.31567383 C-10.70257787 -0.85038103 -5.58680419 -0.01817832 0 0 Z " fill="#A5C678" transform="translate(302.45166015625,77.684326171875)"/>
<path d="M0 0 C3.1955372 2.83359856 6.14047309 5.82965494 9 9 C8.505 10.485 8.505 10.485 8 12 C7.34 12 6.68 12 6 12 C5.773125 12.556875 5.54625 13.11375 5.3125 13.6875 C3.27785041 17.27235879 0.88020963 20.45801787 -3.1953125 21.6328125 C-6.66998274 22.08771362 -10.05810387 22.17009982 -13.5625 22.1875 C-14.86316406 22.20167969 -16.16382813 22.21585938 -17.50390625 22.23046875 C-20.82933275 22.01125069 -22.1723854 21.51161787 -25 20 C-27.59154919 19.75970041 -27.59154919 19.75970041 -30.25 19.875 C-31.58804688 19.90207031 -31.58804688 19.90207031 -32.953125 19.9296875 C-33.62859375 19.95289062 -34.3040625 19.97609375 -35 20 C-35.33 20.66 -35.66 21.32 -36 22 C-35.23856689 22.14099121 -34.47713379 22.28198242 -33.69262695 22.42724609 C-30.23157463 23.0711996 -26.77204802 23.7230153 -23.3125 24.375 C-21.51522461 24.70757812 -21.51522461 24.70757812 -19.68164062 25.046875 C-18.52470703 25.26601562 -17.36777344 25.48515625 -16.17578125 25.7109375 C-14.58117065 26.00943604 -14.58117065 26.00943604 -12.9543457 26.31396484 C-10.14455381 26.96643284 -7.64089075 27.85141534 -5 29 C-5.02094727 29.55349121 -5.04189453 30.10698242 -5.06347656 30.67724609 C-5.61005712 47.29952177 -3.69929981 56.7961413 7 70 C7.59683594 70.51691406 8.19367188 71.03382813 8.80859375 71.56640625 C10 73 10 73 9.96875 74.96875 C7.18046138 80.81516162 -1.49902891 84.75581653 -7.32421875 87.15625 C-24.67588968 92.6277258 -42.81365639 92.62081254 -59.4375 84.875 C-67.28898365 80.63555734 -75.01811016 74.74687687 -78 66 C-78.1875 63.125 -78.1875 63.125 -78 61 C-72.68022026 58.39670353 -67.93399001 57.28099674 -62 57 C-60.68257812 56.93554688 -59.36515625 56.87109375 -58.0078125 56.8046875 C-56.56780943 56.76206067 -55.12769584 56.72302234 -53.6875 56.6875 C-52.64638062 56.64266479 -52.64638062 56.64266479 -51.58422852 56.59692383 C-48.12227171 56.55781755 -46.39694493 56.66276644 -43.71484375 58.94140625 C-43.14894531 59.62074219 -42.58304688 60.30007812 -42 61 C-33.07973133 64.56810747 -24.69547105 63.52859695 -16 60 C-16.33 58.35 -16.66 56.7 -17 55 C-19.29059509 54.37084988 -21.58236938 53.74665561 -23.875 53.125 C-24.50664062 52.95097656 -25.13828125 52.77695313 -25.7890625 52.59765625 C-31.18096633 51.14184222 -36.48635275 50.10272945 -42 49 C-42 41.74 -42 34.48 -42 27 C-43.93746094 26.93941406 -45.87492187 26.87882812 -47.87109375 26.81640625 C-50.39323759 26.73202226 -52.91537257 26.6473732 -55.4375 26.5625 C-57.3565918 26.50352539 -57.3565918 26.50352539 -59.31445312 26.44335938 C-61.13686523 26.38051758 -61.13686523 26.38051758 -62.99609375 26.31640625 C-64.12200928 26.27974854 -65.2479248 26.24309082 -66.40795898 26.20532227 C-69 26 -69 26 -70 25 C-70.76376287 17.87572008 -70.38161034 11.82976969 -66 6 C-49.87355574 -11.79854102 -19.50579162 -13.03557782 0 0 Z " fill="#51AFB3" transform="translate(194,82)"/>
<path d="M0 0 C1.45792884 -0.05399736 2.91642712 -0.09279177 4.375 -0.125 C5.18710937 -0.14820312 5.99921875 -0.17140625 6.8359375 -0.1953125 C9 0 9 0 11 2 C11.20383907 4.75478035 11.28317676 7.4094465 11.2746582 10.16577148 C11.2823246 11.4318222 11.2823246 11.4318222 11.29014587 12.72344971 C11.30408365 15.52273586 11.30308196 18.32177696 11.30078125 21.12109375 C11.30466594 23.06161084 11.30900013 25.00212708 11.31376648 26.94264221 C11.32123774 31.0139542 11.32093091 35.08517949 11.31567383 39.15649414 C11.30987857 44.38015245 11.32680718 49.60345626 11.3500185 54.82705593 C11.36473318 58.83586206 11.36563063 62.84458237 11.36250877 66.85341072 C11.36302315 68.77957931 11.36828254 70.70575256 11.37832069 72.63189507 C11.39062374 75.3231106 11.38393049 78.01363003 11.37231445 80.70483398 C11.38378006 81.90421349 11.38378006 81.90421349 11.39547729 83.12782288 C11.34420737 88.48749885 11.34420737 88.48749885 9.65866089 90.99716187 C7.01075149 92.59810667 4.64049935 92.33448642 1.58203125 92.29296875 C0.32841797 92.28330078 -0.92519531 92.27363281 -2.21679688 92.26367188 C-4.18229492 92.2259668 -4.18229492 92.2259668 -6.1875 92.1875 C-7.52277163 92.17244967 -8.85805937 92.15876187 -10.19335938 92.14648438 C-13.46264576 92.11107694 -16.73112093 92.0616889 -20 92 C-20 91.67 -20 91.34 -20 91 C-12.74 90.67 -5.48 90.34 2 90 C1.34 89.34 0.68 88.68 0 88 C-0.18813821 85.19850486 -0.2517501 82.49663997 -0.22705078 79.69482422 C-0.22734283 78.83621796 -0.22763489 77.97761169 -0.22793579 77.09298706 C-0.22653922 74.24678543 -0.21096273 71.40084356 -0.1953125 68.5546875 C-0.19158353 66.58456566 -0.18873601 64.61444198 -0.18673706 62.64431763 C-0.17909146 57.45256452 -0.15943504 52.26092286 -0.1373291 47.06921387 C-0.1168906 41.7740225 -0.10773962 36.47881317 -0.09765625 31.18359375 C-0.07619001 20.78901346 -0.04204292 10.39451599 0 0 Z " fill="#94B140" transform="translate(388,79)"/>
<path d="M0 0 C9.36477071 4.508423 14.13665652 12.64242063 18 22 C21.00296638 31.22997643 19.36524504 41.22657676 15.63671875 49.93359375 C13.05411465 54.77212411 9.92860784 59.15811639 6 63 C5.34 63 4.68 63 4 63 C-0.09802713 55.75541349 -0.54000932 49.5193025 -0.390625 41.30859375 C-0.38496521 40.12274185 -0.37930542 38.93688995 -0.37347412 37.71510315 C-0.35121801 33.9554784 -0.3010393 30.19683306 -0.25 26.4375 C-0.2299212 23.87696696 -0.21167286 21.31641887 -0.1953125 18.75585938 C-0.15138842 12.50357633 -0.08458371 6.25185816 0 0 Z " fill="#4F8C44" transform="translate(289,90)"/>
<path d="M0 0 C2.76276177 0.52268466 5.3260876 1.10869587 8 2 C8 2.66 8 3.32 8 4 C8.556875 4.2475 9.11375 4.495 9.6875 4.75 C15.7682351 8.03688384 19.5562032 12.26016707 21.59375 18.94921875 C22.91875346 25.63793814 22.1696664 31.01285236 19 37 C17.3125 39.4375 17.3125 39.4375 16 41 C12.20684017 40.46049149 10.84914871 39.06735708 8.5625 36.0625 C2.46054755 27.86095101 -1.17940431 20.19271223 -1.125 9.9375 C-1.12886719 9.20466797 -1.13273438 8.47183594 -1.13671875 7.71679688 C-1.12668491 2.25336982 -1.12668491 2.25336982 0 0 Z " fill="#397E60" transform="translate(189,113)"/>
<path d="M0 0 C3.95831809 -0.02892857 7.91660917 -0.04677427 11.875 -0.0625 C13.56689453 -0.07506836 13.56689453 -0.07506836 15.29296875 -0.08789062 C16.36933594 -0.09111328 17.44570312 -0.09433594 18.5546875 -0.09765625 C19.54968262 -0.10289307 20.54467773 -0.10812988 21.56982422 -0.11352539 C24 0 24 0 26 1 C26 7.6 26 14.2 26 21 C14.3002239 18.07505598 6.41917048 13.30957684 0 3 C0 2.01 0 1.02 0 0 Z " fill="#2F6C96" transform="translate(126,108)"/>
<path d="M0 0 C7.72442368 -0.45437786 11.27328539 2.1423555 17 7 C19.59132806 9.48527726 22.09667098 11.94332922 24 15 C24 16.32 24 17.64 24 19 C20.37506666 19.05787784 16.75025143 19.0935542 13.125 19.125 C12.09246094 19.14175781 11.05992188 19.15851563 9.99609375 19.17578125 C9.00996094 19.18222656 8.02382812 19.18867188 7.0078125 19.1953125 C5.64100342 19.21102295 5.64100342 19.21102295 4.24658203 19.22705078 C2 19 2 19 0 17 C-0.14517744 14.0906442 -0.18630796 11.280054 -0.125 8.375 C-0.11597656 7.57320313 -0.10695313 6.77140625 -0.09765625 5.9453125 C-0.07406223 3.96341477 -0.03819065 1.98167019 0 0 Z " fill="#2252A4" transform="translate(81,113)"/>
<path d="M0 0 C5.28 0 10.56 0 16 0 C16 0.66 16 1.32 16 2 C15.34 2 14.68 2 14 2 C14 2.66 14 3.32 14 4 C10.04 4 6.08 4 2 4 C2 3.01 2 2.02 2 1 C1.34 0.67 0.68 0.34 0 0 Z " fill="#56AE7A" transform="translate(240,168)"/>
<path d="M0 0 C0.99 0 1.98 0 3 0 C3 2.31 3 4.62 3 7 C0.36 7.33 -2.28 7.66 -5 8 C-3.63029745 5.04987143 -2.17390875 2.4347778 0 0 Z " fill="#418868" transform="translate(200,94)"/>
</svg>
