<?xml version="1.0" encoding="UTF-8"?>
<svg version="1.1" xmlns="http://www.w3.org/2000/svg" width="478" height="392">
<path d="M0 0 C157.74 0 315.48 0 478 0 C478 129.36 478 258.72 478 392 C320.26 392 162.52 392 0 392 C0 262.64 0 133.28 0 0 Z " fill="#FEFEFE" transform="translate(0,0)"/>
<path d="M0 0 C0.7532959 0.01305176 1.5065918 0.02610352 2.28271484 0.03955078 C18.89601601 0.53515941 35.75474995 10.20852392 48 21 C48.87785156 21.75667969 49.75570312 22.51335937 50.66015625 23.29296875 C60.21751102 32.1295577 68.92989794 45.67482494 70.4375 58.8125 C69.82864577 63.24843795 68.52723516 65.70942318 65.109375 68.59765625 C60.32907905 70.75359374 55.6288217 70.58221339 50.4375 70.6875 C49.30521973 70.71730957 48.17293945 70.74711914 47.00634766 70.77783203 C44.59180732 70.83570692 42.17706472 70.88559809 39.76220703 70.92822266 C35.95354136 71.00088636 32.14743944 71.11546936 28.33984375 71.23046875 C25.85161734 71.28139971 23.36333437 71.32964962 20.875 71.375 C19.1259436 71.43240356 19.1259436 71.43240356 17.34155273 71.4909668 C9.94991388 71.56262566 5.86242873 70.40686893 0 66 C-6.14734491 62.99907719 -13.23321112 62.81584589 -19.74609375 64.86328125 C-23.6534438 66.4925444 -23.6534438 66.4925444 -27 69 C-27.36760731 71.32817964 -27.70241581 73.6618385 -28 76 C-27.319375 76.2475 -26.63875 76.495 -25.9375 76.75 C-23 78 -23 78 -19.7421875 79.99609375 C-16.2651975 81.99759824 -13.18384518 82.7352991 -9.1875 83.3125 C-0.29832532 84.73833799 8.29024432 87.14594175 16.95043945 89.57543945 C24.86530214 91.91912944 24.86530214 91.91912944 33 93 C34.79563234 91.91822701 34.79563234 91.91822701 35.8125 90.125 C38 87 38 87 40 86 C42.71579586 85.90683329 45.40573898 85.874223 48.12158203 85.88647461 C48.96068115 85.88632858 49.79978027 85.88618256 50.66430664 85.8860321 C53.44550131 85.88673032 56.22662949 85.89451845 59.0078125 85.90234375 C60.93309492 85.90420825 62.85837782 85.905632 64.78366089 85.90663147 C69.8570079 85.91045409 74.93032639 85.92028221 80.00366211 85.93133545 C85.17821873 85.94155505 90.35277995 85.94613027 95.52734375 85.95117188 C105.68490838 85.96190469 115.84245182 85.97897807 126 86 C125.75660889 84.10882446 125.75660889 84.10882446 125.50830078 82.17944336 C124.32732879 73.00316199 123.76650481 62.4013548 128 54 C128.28798574 52.6534 128.53640696 51.29788427 128.75 49.9375 C132.22018239 33.75214548 145.86337944 20.41116924 159.0625 11.375 C179.31324909 -1.14886752 205.04737793 -2.4484804 228.15625 1.04296875 C246.24087174 5.54574551 258.5289527 15.12401604 268.22900391 31.05981445 C273.72699231 40.49789641 280.70380894 52.78025739 278 64 C275.44811788 67.31054978 272.31440521 70.68515678 267.98469543 71.27415466 C267.21606674 71.28479446 266.44743805 71.29543427 265.65551758 71.30639648 C264.78063187 71.32238388 263.90574615 71.33837128 263.00434875 71.35484314 C261.58873909 71.36288719 261.58873909 71.36288719 260.14453125 71.37109375 C259.16892746 71.38012222 258.19332367 71.3891507 257.18815613 71.39845276 C255.12115552 71.41296776 253.05410883 71.42184509 250.98706055 71.42553711 C247.84148326 71.43739078 244.69789505 71.48652822 241.55273438 71.53710938 C239.54167621 71.54657881 237.53060602 71.55381135 235.51953125 71.55859375 C234.58591263 71.57812607 233.65229401 71.59765839 232.69038391 71.61778259 C226.05755962 71.57252052 222.29452526 69.87267169 217 66 C210.28185802 62.74896931 202.95797438 63.14069717 195.9375 65.375 C193.23555135 66.34242465 192.06768164 66.93231836 190 69 C189.76220472 72.0913386 190.01034981 74.03104944 191 77 C198.78592041 81.7440351 208.29526861 83.68792754 217.125 85.4375 C242.75876807 90.84410548 262.91430585 98.39683111 278.8671875 120.66796875 C291.37145666 140.20302661 297.65436506 162.70569158 292.82177734 185.79272461 C286.95815569 210.48683595 273.52190701 229.36288652 252.3125 243.1875 C236.7291781 252.12356115 219.14689094 253.39697774 201.5625 253.375 C200.88878357 253.37512085 200.21506714 253.3752417 199.52093506 253.37536621 C189.15789995 253.3489667 179.76658402 252.6529561 170 249 C169.21367187 248.71125 168.42734375 248.4225 167.6171875 248.125 C165.3464834 247.18655403 163.19162959 246.11144448 161 245 C159.75226214 244.41461593 158.50345803 243.83150204 157.25390625 243.25 C148.99853912 239.34992633 141.76261991 235.23551686 135 229 C134.10925781 228.20078125 133.21851563 227.4015625 132.30078125 226.578125 C120.78107129 215.71714323 110.28844432 201.61030607 108.6328125 185.40625 C109.07969134 181.26073568 110.11306904 179.95355708 113 177 C115.68505859 175.93237305 115.68505859 175.93237305 118.7734375 175.32421875 C120.50352051 174.98076416 120.50352051 174.98076416 122.26855469 174.63037109 C128.0392079 173.65550675 133.81374256 172.79132646 139.62109375 172.06469727 C141.63165122 171.81166293 143.6399286 171.54415196 145.6484375 171.27539062 C166.17227119 168.64907001 166.17227119 168.64907001 170.875 172.125 C172.31895142 174.07858133 173.75622684 176.0371111 175.1875 178 C180.40980032 184.34835883 190.12454842 187.54984603 198 189 C210.28641339 190.18527753 222.21027375 187.88616837 232 180 C236.04740638 175.99306769 238.11478835 172.3555765 238.4375 166.625 C238.49808594 165.87476563 238.55867188 165.12453125 238.62109375 164.3515625 C237.64941798 160.67263915 235.09364446 158.93585454 232 157 C229.33769094 155.73246491 226.6253468 154.81327331 223.8125 153.9375 C223.03583984 153.68637451 222.25917969 153.43524902 221.45898438 153.17651367 C214.15731158 150.89437555 206.745162 149.35031196 199.24609375 147.87890625 C195.0347466 147.040721 190.97498153 145.90253453 186.91015625 144.515625 C184.68612505 143.82625957 184.68612505 143.82625957 181 144 C179.36323743 145.9600281 179.36323743 145.9600281 178 148 C177.34 148 176.68 148 176 148 C176 148.66 176 149.32 176 150 C145.97 150 115.94 150 85 150 C85.33 152.97 85.66 155.94 86 159 C86.65951792 169.91702009 86.64692403 180.59223989 83 191 C82.64421875 192.14210938 82.2884375 193.28421875 81.921875 194.4609375 C74.45533049 215.91600818 57.55506812 231.34716794 38 242 C35.68842494 243.04931654 33.35464584 244.05127064 31 245 C29.7934375 245.50660156 28.586875 246.01320313 27.34375 246.53515625 C2.81426266 256.45126432 -29.49328998 256.44364284 -54.24682617 246.67407227 C-67.20638452 241.10296699 -78.12982141 232.97376367 -88 223 C-89.08861328 221.94425781 -89.08861328 221.94425781 -90.19921875 220.8671875 C-97.82852047 212.9830761 -108.4167316 197.79762148 -108.4375 186.375 C-108.30223603 183.32115577 -107.94176642 181.88100094 -106.5625 179.0625 C-100.23708394 173.97131147 -89.3174502 173.96956659 -81.41821289 172.71289062 C-80.02256268 172.48893933 -78.62767916 172.26015277 -77.23364258 172.02636719 C-52.13372679 167.8178561 -52.13372679 167.8178561 -45.796875 172.23046875 C-45.12140625 173.20628906 -44.4459375 174.18210937 -43.75 175.1875 C-39.35207535 180.78551194 -35.63191559 183.52867297 -29 186 C-28.22140625 186.31582031 -27.4428125 186.63164062 -26.640625 186.95703125 C-14.41673171 191.33126757 -2.54539162 189.42976338 9 184 C14.19859252 180.81924085 18.22870413 177.54259174 21 172 C21.38887467 169.76875544 21.38887467 169.76875544 21.5 167.25 C21.5721875 166.40953125 21.644375 165.5690625 21.71875 164.703125 C20.57463516 160.40025833 17.62506645 158.39759966 14 156 C11.38438444 154.66709998 8.73957539 153.73899957 5.9375 152.875 C5.16873535 152.62693604 4.3999707 152.37887207 3.60791016 152.12329102 C-3.47320343 149.94725761 -10.65703884 148.6936165 -17.94970703 147.45947266 C-40.75088999 143.53182376 -64.01543494 133.28084715 -78 114 C-89.43106728 96.36104974 -95.28347135 78.19256939 -90.875 57.1875 C-85.45405747 37.41109854 -74.185542 21.18954413 -56.3125 10.75 C-51.25524501 7.93259755 -46.02617304 5.63661123 -40.625 3.5625 C-39.98344971 3.31532227 -39.34189941 3.06814453 -38.6809082 2.81347656 C-26.46774624 -1.60589447 -12.77140274 -0.29030731 0 0 Z " fill="#4387C5" transform="translate(142,83)"/>
<path d="M0 0 C12.36038822 11.46368865 24.39668013 29.80071199 25.37109375 47.109375 C25.17373723 50.75149981 24.78277184 51.49929261 22.43359375 54.546875 C16.72733611 58.79339231 16.72733611 58.79339231 12.40161133 58.85327148 C11.52672562 58.86925888 10.6518399 58.88524628 9.7504425 58.90171814 C8.33483284 58.90976219 8.33483284 58.90976219 6.890625 58.91796875 C5.91502121 58.92699722 4.93941742 58.9360257 3.93424988 58.94532776 C1.86724927 58.95984276 -0.19979742 58.96872009 -2.2668457 58.97241211 C-5.41242299 58.98426578 -8.5560112 59.03340322 -11.70117188 59.08398438 C-13.71223004 59.09345381 -15.72330023 59.10068635 -17.734375 59.10546875 C-19.13480293 59.13476723 -19.13480293 59.13476723 -20.56352234 59.16465759 C-27.19634663 59.11939552 -30.95938099 57.41954669 -36.25390625 53.546875 C-42.97204823 50.29584431 -50.29593187 50.68757217 -57.31640625 52.921875 C-60.0183549 53.88929965 -61.18622461 54.47919336 -63.25390625 56.546875 C-63.49170153 59.6382136 -63.24355644 61.57792444 -62.25390625 64.546875 C-54.46798584 69.2909101 -44.95863764 71.23480254 -36.12890625 72.984375 C-10.49513818 78.39098048 9.6603996 85.94370611 25.61328125 108.21484375 C38.11755041 127.74990161 44.40045881 150.25256658 39.56787109 173.33959961 C33.70424944 198.03371095 20.26800076 216.90976152 -0.94140625 230.734375 C-16.52472815 239.67043615 -34.10701531 240.94385274 -51.69140625 240.921875 C-52.36512268 240.92199585 -53.03883911 240.9221167 -53.73297119 240.92224121 C-64.0960063 240.8958417 -73.48732223 240.1998311 -83.25390625 236.546875 C-84.04023438 236.258125 -84.8265625 235.969375 -85.63671875 235.671875 C-87.90742285 234.73342903 -90.06227666 233.65831948 -92.25390625 232.546875 C-93.50164411 231.96149093 -94.75044822 231.37837704 -96 230.796875 C-104.25536713 226.89680133 -111.49128634 222.78239186 -118.25390625 216.546875 C-119.59001953 215.34804688 -119.59001953 215.34804688 -120.953125 214.125 C-132.47283496 203.26401823 -142.96546193 189.15718107 -144.62109375 172.953125 C-144.17421491 168.80761068 -143.14083721 167.50043208 -140.25390625 164.546875 C-137.56884766 163.47924805 -137.56884766 163.47924805 -134.48046875 162.87109375 C-133.32708008 162.64212402 -132.17369141 162.4131543 -130.98535156 162.17724609 C-125.21469835 161.20238175 -119.44016369 160.33820146 -113.6328125 159.61157227 C-111.62225503 159.35853793 -109.61397765 159.09102696 -107.60546875 158.82226562 C-87.08163506 156.19594501 -87.08163506 156.19594501 -82.37890625 159.671875 C-80.93495483 161.62545633 -79.49767941 163.5839861 -78.06640625 165.546875 C-72.84410593 171.89523383 -63.12935783 175.09672103 -55.25390625 176.546875 C-42.96749286 177.73215253 -31.0436325 175.43304337 -21.25390625 167.546875 C-17.20649987 163.53994269 -15.1391179 159.9024515 -14.81640625 154.171875 C-14.75582031 153.42164063 -14.69523438 152.67140625 -14.6328125 151.8984375 C-15.60448827 148.21951415 -18.16026179 146.48272954 -21.25390625 144.546875 C-23.91622234 143.27933657 -26.62852862 142.36008219 -29.44140625 141.484375 C-30.2209668 141.23252441 -31.00052734 140.98067383 -31.80371094 140.72119141 C-38.17726277 138.73025156 -44.61895251 137.24082598 -51.18041992 136.01538086 C-58.33808904 134.65845779 -65.27348393 132.61012148 -72.25390625 130.546875 C-72.23725166 129.60180084 -72.23725166 129.60180084 -72.22026062 128.63763428 C-72.10970374 122.08425055 -72.03425409 115.53113136 -71.97924805 108.97705078 C-71.9540927 106.53065228 -71.91996459 104.08432901 -71.87670898 101.63818359 C-71.81610554 98.12318369 -71.78770604 94.60917671 -71.765625 91.09375 C-71.72691536 89.4513736 -71.72691536 89.4513736 -71.68742371 87.77581787 C-71.53570233 81.76323626 -71.53570233 81.76323626 -74.65942383 76.88769531 C-78.40469249 74.95215231 -80.34358178 74.42265974 -84.58157349 74.42662048 C-85.71181946 74.42524582 -86.84206543 74.42387115 -88.00656128 74.42245483 C-89.25236969 74.42605011 -90.4981781 74.42964539 -91.78173828 74.43334961 C-93.74264404 74.43313057 -93.74264404 74.43313057 -95.74316406 74.4329071 C-99.33385386 74.4326195 -102.92451045 74.43851034 -106.51519251 74.44548106 C-110.26548756 74.45172067 -114.01578332 74.45231888 -117.76608276 74.45350647 C-124.87046657 74.45661799 -131.97483503 74.46482897 -139.07921207 74.47485596 C-147.16616414 74.48602265 -155.25311692 74.49152895 -163.34007478 74.49655139 C-179.97802759 74.50701173 -196.61596496 74.52460772 -213.25390625 74.546875 C-213.25390625 74.216875 -213.25390625 73.886875 -213.25390625 73.546875 C-184.87390625 73.546875 -156.49390625 73.546875 -127.25390625 73.546875 C-127.74890625 69.586875 -127.74890625 69.586875 -128.25390625 65.546875 C-128.63019916 57.41230763 -128.96808774 48.91765378 -125.25390625 41.546875 C-124.96592051 40.200275 -124.71749929 38.84475927 -124.50390625 37.484375 C-121.03372386 21.29902048 -107.39052681 7.95804424 -94.19140625 -1.078125 C-68.88393709 -16.72926905 -24.15462052 -19.49807877 0 0 Z " fill="#54B0B4" transform="translate(395.25390625,95.453125)"/>
<path d="M0 0 C6.58352441 -0.10161289 13.16684577 -0.1715547 19.75097656 -0.21972656 C21.98966021 -0.23981316 24.22829158 -0.2670878 26.46679688 -0.30175781 C29.68893349 -0.35040464 32.91037501 -0.37299874 36.1328125 -0.390625 C37.12991241 -0.41127014 38.12701233 -0.43191528 39.15432739 -0.45318604 C45.12476171 -0.45510392 48.42773539 0.07309196 53 4 C55 6 55 6 55.24050903 8.13870239 C55.2338472 9.4644075 55.2338472 9.4644075 55.22705078 10.81689453 C55.22689972 11.81778107 55.22674866 12.8186676 55.22659302 13.84988403 C55.21627045 14.93325043 55.20594788 16.01661682 55.1953125 17.1328125 C55.1924826 18.23978485 55.18965271 19.3467572 55.18673706 20.48727417 C55.17551519 24.03329137 55.15040691 27.57905875 55.125 31.125 C55.1149728 33.52473594 55.1058465 35.92447583 55.09765625 38.32421875 C55.07556932 44.21623151 55.04207207 50.10809791 55 56 C53.5686006 55.70104564 52.1383082 55.39678804 50.70849609 55.09033203 C49.91188568 54.92147491 49.11527527 54.7526178 48.29452515 54.5786438 C38.89105991 52.20723512 29.23532278 45.30734551 22 39 C22 38.34 22 37.68 22 37 C20.515 36.505 20.515 36.505 19 36 C10.1707975 26.73354175 -0.23613957 13.39744798 0 0 Z " fill="#2E6B96" transform="translate(269,169)"/>
<path d="M0 0 C6.07719689 0.71643976 9.96912722 2.20783747 15.125 5.3125 C15.86347168 5.75400391 16.60194336 6.19550781 17.36279297 6.65039062 C32.97662821 16.31593767 44.14621192 29.43863576 50 47 C50.03954234 49.33299825 50.04401732 51.66708189 50 54 C43.84369416 54.1486294 37.68843868 54.25735056 31.53076172 54.32958984 C29.43747764 54.35971137 27.34431925 54.40061798 25.25146484 54.45263672 C22.23764004 54.52565575 19.22548727 54.55950261 16.2109375 54.5859375 C14.81371964 54.63238907 14.81371964 54.63238907 13.38827515 54.67977905 C9.05286541 54.68201055 5.83183233 54.47198436 2.3984375 51.65625 C-1.23996742 47.2939731 -0.75057942 42.33150454 -0.5859375 36.9140625 C-0.57744781 35.85714203 -0.56895813 34.80022156 -0.56021118 33.71127319 C-0.52672617 30.34812859 -0.45145131 26.98741518 -0.375 23.625 C-0.34489428 21.33987847 -0.31751954 19.05471921 -0.29296875 16.76953125 C-0.22695131 11.17886334 -0.12665139 5.58960537 0 0 Z " fill="#2151A3" transform="translate(175,179)"/>
<path d="M0 0 C-1.1446875 0.6496875 -1.1446875 0.6496875 -2.3125 1.3125 C-5.51430153 3.28780939 -5.51430153 3.28780939 -8 6 C-8.7269226 9.10839021 -8.7269226 9.10839021 -9 12 C-9.33 12 -9.66 12 -10 12 C-10.32470459 7.86001651 -10.4304413 5.66000999 -8.125 2.125 C-5.06936397 -0.93063603 -4.02578305 -1.20773492 0 0 Z " fill="#74BFC2" transform="translate(261,260)"/>
<path d="M0 0 C0.66 0.33 1.32 0.66 2 1 C0.7625 2.0828125 0.7625 2.0828125 -0.5 3.1875 C-3.24407806 5.72917366 -3.24407806 5.72917366 -3.3125 8.8125 C-3.1578125 9.8953125 -3.1578125 9.8953125 -3 11 C-3.66 11 -4.32 11 -5 11 C-5.3125 7.75 -5.3125 7.75 -5 4 C-2.5 1.5625 -2.5 1.5625 0 0 Z " fill="#C5D9EC" transform="translate(119,148)"/>
</svg>
