<?xml version="1.0" encoding="UTF-8"?>
<svg version="1.1" xmlns="http://www.w3.org/2000/svg" width="512" height="512">
<path d="M0 0 C1.06231905 -0.00709439 2.1246381 -0.01418877 3.21914864 -0.02149814 C6.7908319 -0.0391476 10.36143697 -0.02093687 13.93310547 -0.00291443 C16.48875425 -0.00805055 19.04439949 -0.01532949 21.60003662 -0.02459717 C27.82806042 -0.04122914 34.05568224 -0.03445057 40.28369093 -0.01650894 C45.34460637 -0.00249151 50.40543664 0.00141172 55.46636963 -0.00195122 C56.1862667 -0.00242866 56.90616377 -0.0029061 57.64787591 -0.00339801 C59.11026687 -0.00442433 60.5726578 -0.00547969 62.03504872 -0.00656378 C74.97053145 -0.01513423 87.90586272 0.00155526 100.84130859 0.03126526 C113.3973629 0.06010355 125.953199 0.06718669 138.50927734 0.05177307 C152.17723587 0.03501754 165.84509076 0.03097005 179.51305199 0.04848343 C180.97010675 0.05032785 182.42716152 0.05216257 183.88421631 0.0539875 C184.60114218 0.05489959 185.31806805 0.05581168 186.05671895 0.05675141 C191.112395 0.06236086 196.16802052 0.05904584 201.22369385 0.05244255 C208.02648198 0.0439102 214.8289079 0.05684736 221.63166046 0.08429146 C224.1326631 0.09119522 226.63369509 0.09125211 229.13469696 0.08407593 C232.54034876 0.07542797 235.94501668 0.0912595 239.35058594 0.11352539 C240.34785265 0.10528462 241.34511936 0.09704386 242.37260628 0.08855337 C249.00985548 0.1690273 249.00985548 0.1690273 252.25808716 2.41035557 C255.19241198 7.00238017 254.80867122 11.58660539 254.77294922 16.89381409 C254.7708268 18.08391083 254.7708268 18.08391083 254.7686615 19.29804993 C254.76307712 21.8248018 254.75052751 24.35146412 254.73779297 26.87818909 C254.73277595 28.59433364 254.72821339 30.31047958 254.72412109 32.02662659 C254.71311281 36.22718177 254.69585893 40.42767026 254.67529297 44.62818909 C255.5662114 44.61708603 256.45712982 44.60598297 257.37504578 44.59454346 C265.77632229 44.49430554 274.17739762 44.41820594 282.57913494 44.36912823 C286.89847537 44.34304827 291.21732119 44.30768039 295.53637695 44.25099182 C299.70556807 44.19661351 303.87428385 44.1667565 308.04380226 44.15380287 C309.63345637 44.1445733 311.22308483 44.12654952 312.81253624 44.0995388 C315.04169022 44.06316814 317.26888745 44.05824664 319.49829102 44.06056213 C320.76626022 44.04945908 322.03422943 44.03835602 323.34062195 44.0269165 C328.3589307 44.93176482 330.29047338 47.79764894 333.25639343 51.71818542 C333.70618057 52.40730011 334.15596771 53.09641479 334.61938477 53.80641174 C335.4034948 54.9978756 335.4034948 54.9978756 336.20344543 56.21340942 C337.03062325 57.48993629 337.03062325 57.48993629 337.87451172 58.79225159 C338.46290329 59.68947433 339.05129486 60.58669708 339.65751648 61.5111084 C341.56470618 64.42162195 343.46371358 67.33737869 345.36279297 70.25318909 C347.32916864 73.25817448 349.297574 76.26182406 351.26599121 79.26547241 C352.57083065 81.25701438 353.87495074 83.24902785 355.17834473 85.24151611 C361.1041145 94.29803222 367.10209087 103.30475035 373.13110352 112.29273987 C374.35537024 114.12152387 375.56871608 115.95771191 376.7663269 117.80406189 C378.58618112 120.59230695 378.58618112 120.59230695 380.52928162 122.8785553 C387.30559785 131.70005764 386.64701949 140.54298914 386.49951172 151.15553284 C386.49660372 153.03594751 386.49622455 154.91636762 386.49824524 156.79678345 C386.49504422 160.71639249 386.46826431 164.63486903 386.4230957 168.55421448 C386.36615461 173.57709378 386.3582657 178.59857626 386.36650372 183.62172604 C386.36929916 187.49512689 386.35171351 191.36821592 386.3273716 195.24153328 C386.31716796 197.09427878 386.31206411 198.9470597 386.31217003 200.7998333 C386.30820578 203.38250298 386.27809658 205.9635435 386.24047852 208.5459137 C386.2438623 209.30906387 386.24724609 210.07221405 386.25073242 210.85848999 C386.1744518 214.30157249 385.92209045 216.28975501 383.86915588 219.10494995 C380.61007325 221.36779062 377.44692436 221.12463994 373.62841797 221.01881409 C372.85721619 221.0131543 372.0860144 221.00749451 371.29144287 221.00166321 C368.83542017 220.97932498 366.38087242 220.92913671 363.92529297 220.87818909 C362.25734533 220.85812063 360.58937476 220.83987046 358.92138672 220.82350159 C354.83878973 220.77946901 350.75729116 220.71046192 346.67529297 220.62818909 C346.53357666 221.72526184 346.39186035 222.82233459 346.24584961 223.95265198 C344.8337708 233.04929148 338.8935866 241.10262763 331.67529297 246.62818909 C320.16361023 253.6796837 308.45943809 256.66518983 295.17529297 253.50318909 C284.73090192 250.33599011 275.48070518 244.07832132 269.88232422 234.58912659 C267.67559863 230.28050798 265.85201587 226.33508068 264.67529297 221.62818909 C213.19529297 221.29818909 161.71529297 220.96818909 108.67529297 220.62818909 C108.01529297 223.59818909 107.35529297 226.56818909 106.67529297 229.62818909 C101.36474681 240.79468885 93.05784872 248.08226978 81.67529297 252.62818909 C70.01282456 256.45587103 58.55194166 254.90144251 47.48779297 249.87818909 C37.22082876 244.31429233 30.51841742 235.54802565 27.12060547 224.47584534 C26.67529297 222.62818909 26.67529297 222.62818909 26.67529297 220.62818909 C25.57540039 220.64913635 24.47550781 220.67008362 23.34228516 220.69166565 C19.25729416 220.76412543 15.17235983 220.81001023 11.08691406 220.84791565 C9.31956425 220.86801759 7.55228084 220.89530381 5.78515625 220.9299469 C3.24316012 220.97852918 0.70204401 221.00117134 -1.84033203 221.01881409 C-3.02335907 221.0497818 -3.02335907 221.0497818 -4.23028564 221.08137512 C-7.85563374 221.08285433 -9.89236516 220.95705297 -12.82177734 218.72877502 C-14.90165583 215.82181035 -14.89373374 214.00105372 -14.71923828 210.53053284 C-14.11082596 207.59690113 -12.71324189 206.33428542 -10.32470703 204.62818909 C-6.69237601 203.41741208 -3.37348716 203.50374745 0.40576172 203.53053284 C1.53139275 203.53265526 1.53139275 203.53265526 2.67976379 203.53482056 C5.07414757 203.54041349 7.4684375 203.55296465 9.86279297 203.56568909 C11.48714058 203.570705 13.11148965 203.57526775 14.73583984 203.57936096 C18.71569366 203.5903806 22.69547741 203.60764035 26.67529297 203.62818909 C26.85487549 202.96649719 27.03445801 202.3048053 27.21948242 201.62306213 C30.1488944 191.28268214 35.56898514 182.67342385 44.67529297 176.62818909 C55.84714801 171.02771488 67.5074189 168.42974986 79.86279297 171.75318909 C92.68504761 176.20767365 100.65960427 183.71353587 106.51123047 195.76100159 C107.67529297 198.62818909 107.67529297 198.62818909 108.67529297 203.62818909 C151.24529297 203.62818909 193.81529297 203.62818909 237.67529297 203.62818909 C237.67529297 142.24818909 237.67529297 80.86818909 237.67529297 17.62818909 C211.10771484 17.66299377 211.10771484 17.66299377 184.00341797 17.69850159 C172.81070906 17.70871558 161.6180035 17.71842572 150.42529297 17.72584534 C144.54768869 17.72976121 138.67008452 17.7338022 132.79248047 17.73805237 C131.68745595 17.73884361 131.68745595 17.73884361 130.56010771 17.73965085 C118.65998616 17.74835437 106.75988389 17.76412472 94.85977378 17.78249468 C82.6511017 17.80118407 70.44243972 17.81230377 58.23375392 17.81636608 C50.69763899 17.81911313 43.16157855 17.82779595 35.62548038 17.84402202 C29.85113804 17.85582307 24.07683078 17.85710286 18.30247879 17.85440445 C15.93047118 17.85495627 13.55846157 17.85895562 11.18646622 17.86660004 C7.9560413 17.87650339 4.72585237 17.87417478 1.49542236 17.86869812 C0.54990045 17.8745238 -0.39562147 17.88034949 -1.36979556 17.8863517 C-2.23467507 17.88236961 -3.09955457 17.87838751 -3.99064255 17.87428474 C-4.73641328 17.87504418 -5.482184 17.87580363 -6.25055385 17.87658608 C-8.69536083 17.58380023 -10.24593032 16.94232865 -12.32470703 15.62818909 C-14.81629743 11.89080349 -14.78263988 10.05487326 -14.32470703 5.62818909 C-11.04439672 -0.76822853 -6.43164435 -0.07633183 0 0 Z M254.67529297 61.62818909 C254.67529297 108.48818909 254.67529297 155.34818909 254.67529297 203.62818909 C257.97529297 203.62818909 261.27529297 203.62818909 264.67529297 203.62818909 C265.19478516 202.54279846 265.71427734 201.45740784 266.24951172 200.33912659 C266.95350145 198.89360101 267.65795322 197.44830039 268.36279297 196.00318909 C268.70246094 195.29033752 269.04212891 194.57748596 269.39208984 193.84303284 C274.24792145 183.9498432 281.07725252 177.74646002 291.37841797 173.51881409 C303.80817645 169.66631584 315.80249158 171.00792593 327.30029297 176.81568909 C338.05535157 183.20031751 342.81922742 192.05999245 346.67529297 203.62818909 C354.26529297 203.62818909 361.85529297 203.62818909 369.67529297 203.62818909 C369.67529297 190.09818909 369.67529297 176.56818909 369.67529297 162.62818909 C365.71529297 162.29818909 361.75529297 161.96818909 357.67529297 161.62818909 C354.67529297 159.62818909 354.67529297 159.62818909 353.80029297 155.75318909 C353.40404119 153.08102964 353.54406479 151.89446298 354.74951172 149.44850159 C357.4546954 146.89147198 359.70617051 146.81263928 363.36279297 146.37818909 C364.54228516 146.22865784 365.72177734 146.07912659 366.93701172 145.92506409 C367.84064453 145.82709534 368.74427734 145.72912659 369.67529297 145.62818909 C370.49457972 138.73721765 367.93289608 135.05401983 364.10498047 129.47975159 C363.52303421 128.60126556 362.94108795 127.72277954 362.34150696 126.81767273 C359.10527848 121.95161954 355.78572846 117.14487497 352.45385742 112.3440094 C351.08140329 110.35435245 349.71120554 108.36313719 348.34326172 106.37037659 C347.66280289 105.38049744 346.98234406 104.39061829 346.28126526 103.3707428 C341.76101757 96.64590439 338.02698126 89.89533147 335.34721375 82.22947693 C331.79398908 73.08530784 326.23996364 69.51552344 318.67529297 61.62818909 C297.55529297 61.62818909 276.43529297 61.62818909 254.67529297 61.62818909 Z M47.67529297 197.62818909 C43.29550465 204.22766604 41.54231175 209.84894543 43.10107422 217.80006409 C45.20231889 225.2768856 49.64333637 231.02500364 56.30029297 235.06568909 C63.14467763 238.23438569 69.51990455 238.60644916 76.67529297 236.06568909 C83.42044749 233.1339046 87.79106508 228.86655314 91.11279297 222.31568909 C93.73567087 215.62791815 93.69370932 209.44011392 90.92529297 202.81568909 C87.40157416 195.81753425 83.11664052 191.64698343 75.92529297 188.37818909 C64.8916248 185.83195797 54.9766778 188.60883136 47.67529297 197.62818909 Z M285.26904297 198.31178284 C281.15600638 204.28979925 280.02904405 211.04662976 281.23779297 218.12818909 C283.0872809 225.27954243 287.77577165 230.67221034 293.89013672 234.66334534 C299.63913111 237.77056988 305.83427177 238.75970011 312.12841797 236.90553284 C319.42631024 234.2070607 324.60136119 230.94057031 328.55029297 224.06568909 C331.60556093 217.3897302 332.0309081 210.86821878 329.78857422 203.85475159 C326.56119889 196.71378159 322.01618697 191.86620896 314.80029297 188.75318909 C302.95267756 184.94828183 293.08389212 189.10371263 285.26904297 198.31178284 Z " fill="#000000" transform="translate(110.32470703125,127.37181091308594)"/>
<path d="M0 0 C0.90781723 -0.00630432 1.81563446 -0.01260864 2.7509613 -0.019104 C3.72912308 -0.01505554 4.70728485 -0.01100708 5.71508789 -0.00683594 C6.72237442 -0.00874939 7.72966095 -0.01066284 8.76747131 -0.01263428 C10.89836883 -0.01399564 13.02927465 -0.0103026 15.16015625 -0.00195312 C18.42149519 0.00873581 21.68228188 -0.00184446 24.94360352 -0.01464844 C27.01326619 -0.01332662 29.08292852 -0.01076375 31.15258789 -0.00683594 C32.12872543 -0.0108844 33.10486298 -0.01493286 34.11058044 -0.019104 C35.47703453 -0.00964752 35.47703453 -0.00964752 36.87109375 0 C37.67034775 0.00159119 38.46960175 0.00318237 39.29307556 0.00482178 C42.75838828 0.40355709 44.76797228 1.38375273 47.0149231 4.06877136 C47.49106049 4.80074234 47.96719788 5.53271332 48.45776367 6.28686523 C49.00578644 7.11921188 49.5538092 7.95155853 50.11843872 8.80912781 C50.70076263 9.71419571 51.28308655 10.61926361 51.88305664 11.55175781 C52.49736542 12.48997879 53.11167419 13.42819977 53.74459839 14.39485168 C55.71367225 17.40632415 57.66969289 20.42602204 59.62524414 23.44628906 C61.55684098 26.40969908 63.49103204 29.37140168 65.42572021 32.33279419 C66.68466935 34.26387901 67.93994822 36.1973618 69.19146729 38.13327026 C71.94676965 42.39014853 74.72154072 46.61598937 77.65942383 50.74951172 C78.13209686 51.42307205 78.6047699 52.09663239 79.09176636 52.79060364 C79.94598237 53.99961473 80.81474369 55.1985655 81.70193481 56.3835907 C84.85704418 60.87710135 85.02096508 63.95995213 84.50024414 69.25878906 C82.29283733 72.22737063 81.01427041 73.08744697 77.50024414 74.25878906 C74.92589822 74.36505764 72.37822355 74.41602591 69.8034668 74.41992188 C69.02102097 74.42488678 68.23857513 74.42985168 67.43241882 74.43496704 C64.84303916 74.44957634 62.25372075 74.45638837 59.66430664 74.46191406 C57.86453245 74.46766624 56.06475828 74.47342397 54.26498413 74.47918701 C50.49053665 74.48969329 46.71611044 74.49553849 42.94165039 74.49902344 C38.10722042 74.50450937 33.27307192 74.52854105 28.43873024 74.55699539 C24.72066426 74.57562603 21.00266606 74.58082758 17.28455734 74.58235931 C15.50237869 74.58538508 13.72020122 74.59341106 11.93806839 74.60654449 C9.44376493 74.6236151 6.95014885 74.62172252 4.45581055 74.61523438 C3.72109024 74.62444916 2.98636993 74.63366394 2.22938538 74.64315796 C-2.18273447 74.60723875 -5.04536359 74.06370228 -8.49975586 71.25878906 C-10.76438316 68.07717057 -10.75744747 65.21309916 -10.77441406 61.3762207 C-10.78394608 60.19141617 -10.79347809 59.00661163 -10.80329895 57.78590393 C-10.80238754 56.50980759 -10.80147614 55.23371124 -10.80053711 53.91894531 C-10.8069648 51.94757851 -10.8069648 51.94757851 -10.81352234 49.93638611 C-10.82097557 47.15652428 -10.82069986 44.37678948 -10.81542969 41.59692383 C-10.80963629 38.04150778 -10.82656654 34.4866129 -10.84977436 30.931283 C-10.86808301 27.53131548 -10.86432583 24.13146184 -10.86303711 20.73144531 C-10.87224686 19.4573732 -10.8814566 18.18330109 -10.89094543 16.87062073 C-10.88471664 15.68266403 -10.87848785 14.49470734 -10.87207031 13.27075195 C-10.87269974 12.22802628 -10.87332916 11.1853006 -10.87397766 10.11097717 C-10.43791378 6.78745028 -9.48440609 4.94109752 -7.49975586 2.25878906 C-4.34637214 0.15653325 -3.5987129 0.0071716 0 0 Z M6.50024414 17.25878906 C6.50024414 30.45878906 6.50024414 43.65878906 6.50024414 57.25878906 C24.32024414 57.25878906 42.14024414 57.25878906 60.50024414 57.25878906 C58.19024414 53.62878906 55.88024414 49.99878906 53.50024414 46.25878906 C50.94555664 42.14160156 50.94555664 42.14160156 49.79174805 40.26074219 C48.97769746 38.95090106 48.14792525 37.65075731 47.30639648 36.35839844 C45.18418802 33.08869427 43.30945575 29.9625849 41.84399414 26.34472656 C39.22116577 20.8099096 39.22116577 20.8099096 34.50024414 17.25878906 C25.18897285 15.63646961 15.89058616 16.69100094 6.50024414 17.25878906 Z " fill="#000000" transform="translate(382.499755859375,194.7412109375)"/>
<path d="M0 0 C0.97926956 -0.00686325 1.95853912 -0.0137265 2.96748352 -0.02079773 C6.20568321 -0.0391049 9.44340028 -0.03522291 12.68164062 -0.02954102 C14.93078774 -0.0341006 17.17993346 -0.0394055 19.42907715 -0.04542542 C24.14336812 -0.05436399 28.85748975 -0.05192443 33.57177734 -0.04199219 C39.61817809 -0.03049578 45.66399543 -0.05072097 51.71031952 -0.07990932 C56.35483523 -0.09823871 60.99921026 -0.09798545 65.64375305 -0.0922718 C67.87332478 -0.09211822 70.10290582 -0.0981929 72.33244324 -0.11056328 C75.44726382 -0.12541128 78.56099518 -0.11484165 81.67578125 -0.09765625 C82.59954056 -0.10732422 83.52329987 -0.11699219 84.47505188 -0.12695312 C90.70578403 -0.05482783 90.70578403 -0.05482783 93.88317871 2.2518158 C95.78999105 5.07293241 96.26839831 6.99892926 96.33789062 10.40405273 C94.6824166 14.23778207 93.15351615 15.84625344 89.33789062 17.40405273 C87.34478092 17.65852833 87.34478092 17.65852833 85.20802307 17.66474915 C83.98635437 17.67537636 83.98635437 17.67537636 82.74000549 17.68621826 C81.85522018 17.68374084 80.97043488 17.68126343 80.05883789 17.67871094 C79.1201889 17.68382187 78.18153992 17.6889328 77.21444702 17.69419861 C74.11099882 17.708101 71.00777252 17.70713737 67.90429688 17.70483398 C65.74722715 17.70872049 63.59015818 17.71305506 61.43309021 17.71781921 C56.91134155 17.72528277 52.38967096 17.72498909 47.86791992 17.71972656 C42.0728183 17.71393105 36.27803619 17.73086441 30.4829874 17.75407124 C26.02803172 17.76880126 21.57315313 17.76968127 17.11817741 17.76656151 C14.98153996 17.76707506 12.84489823 17.77231919 10.70828438 17.78237343 C7.72075749 17.79470647 4.73385475 17.78796482 1.74633789 17.77636719 C0.86357681 17.78401093 -0.01918427 17.79165466 -0.92869568 17.79953003 C-5.65334668 17.75897996 -8.85335568 17.51584972 -12.66210938 14.40405273 C-14.74121127 11.28539989 -14.94370312 10.86665751 -14.53710938 7.40405273 C-14.47265625 6.72342773 -14.40820312 6.04280273 -14.34179688 5.34155273 C-12.12090421 -0.98926773 -5.55474915 -0.02706931 0 0 Z " fill="#000000" transform="translate(28.662109375,246.595947265625)"/>
<path d="M0 0 C1.27870972 -0.00810448 1.27870972 -0.00810448 2.58325195 -0.01637268 C5.39960506 -0.02887447 8.2149388 -0.0123595 11.03125 0.00561523 C12.98893284 0.00546028 14.94661599 0.00397189 16.90429688 0.00120544 C21.00664841 -0.0001792 25.10865061 0.01239052 29.2109375 0.03515625 C34.47035335 0.06354098 39.72918866 0.06080439 44.98864746 0.04806614 C49.03097495 0.04111236 53.07316817 0.04889483 57.11547852 0.06132317 C59.05476364 0.06584058 60.99406317 0.06617194 62.93334961 0.06225777 C65.64336714 0.05934851 68.35258366 0.07583875 71.0625 0.09765625 C72.26579956 0.09090378 72.26579956 0.09090378 73.4934082 0.08401489 C76.78371141 0.12804468 79.12128419 0.26908978 82.01367188 1.91026306 C84.30331359 4.3113526 84.44258035 6.28244491 84.703125 9.49780273 C84.42306877 12.76300383 82.8807377 14.34801193 80.53125 16.50170898 C76.83487071 17.73383542 73.40905074 17.65722938 69.55908203 17.6628418 C68.74737549 17.6678067 67.93566895 17.67277161 67.09936523 17.67788696 C64.41258905 17.69249883 61.7258719 17.69930871 59.0390625 17.70483398 C57.17202757 17.71058593 55.30499266 17.71634366 53.43795776 17.72210693 C49.52227503 17.73261393 45.60661282 17.73845867 41.69091797 17.74194336 C36.67488999 17.74742958 31.65913326 17.77146159 26.64319038 17.79991531 C22.78615528 17.81854325 18.92918551 17.82374736 15.07210922 17.82527924 C13.22294506 17.82830559 11.37378204 17.83633353 9.52466202 17.84946442 C6.93696724 17.86652935 4.34993534 17.86464376 1.76220703 17.8581543 C0.61804825 17.87197647 0.61804825 17.87197647 -0.54922485 17.88607788 C-5.03907272 17.85082664 -7.88690522 17.25272028 -11.46875 14.50170898 C-13.39738839 11.95941292 -13.47777291 10.71825881 -13.34375 7.50170898 C-11.25080307 0.32589095 -6.7702544 -0.08159391 0 0 Z " fill="#000000" transform="translate(87.46875,204.498291015625)"/>
<path d="M0 0 C4.60214839 3.49988558 7.42455475 8.269758 9.234375 13.69921875 C9.90439898 21.11341857 9.90466396 27.63306131 5.234375 33.69921875 C-0.18113034 39.5180064 -5.0894913 42.65389059 -13.140625 43.01171875 C-20.69208188 42.80865436 -26.46365883 40.12168415 -31.765625 34.69921875 C-36.01417414 28.61822829 -37.60476822 21.63725385 -36.359375 14.30859375 C-34.54203234 7.94789445 -31.31855933 3.04013844 -25.76171875 -0.62109375 C-17.15871297 -5.02263159 -8.39946755 -4.66785697 0 0 Z M-19.765625 18.69921875 C-18.51585744 22.35238546 -18.09463747 23.47987711 -14.765625 25.69921875 C-11.44322176 25.37508185 -10.15786197 25.09145572 -7.765625 22.69921875 C-7.431897 19.56217559 -7.23713472 17.53367709 -8.953125 14.82421875 C-14.15066302 11.59816067 -16.72179568 14.18984198 -19.765625 18.69921875 Z " fill="#000000" transform="translate(429.765625,320.30078125)"/>
<path d="M0 0 C5.27057663 4.00055817 8.67961132 8.4687917 10 15 C10.91393944 22.06018214 9.90456315 27.98766383 6 34 C0.88351009 39.93253767 -5.2027316 42.57127615 -12.875 43.4375 C-19.52808451 43.12318105 -25.89200333 40.6789877 -30.4375 35.75 C-34.64191842 30.15204913 -36.64201942 24.31553135 -36.33984375 17.29296875 C-35.24690537 9.91877534 -31.76984887 4.95693881 -26 0.375 C-18.50254757 -4.77949855 -7.7946604 -4.56036148 0 0 Z M-17.3125 15.6875 C-19.263461 17.86811423 -19.263461 17.86811423 -18.9375 20.5625 C-17.91878499 23.21115903 -17.41931452 24.49835651 -15 26 C-11.91666667 26 -11.91666667 26 -9 25 C-6.67961905 22.17431454 -6.67961905 22.17431454 -7.1875 18.9375 C-7.73754498 15.70259047 -7.73754498 15.70259047 -11 14 C-14.93859697 13.60702062 -14.93859697 13.60702062 -17.3125 15.6875 Z " fill="#000000" transform="translate(191,320)"/>
<path d="M0 0 C0.71431686 -0.00861557 1.42863373 -0.01723114 2.16459656 -0.02610779 C4.52164128 -0.04877715 6.87749786 -0.04202753 9.23461914 -0.03295898 C10.87602593 -0.03819451 12.5174297 -0.04447073 14.15882874 -0.05174255 C17.59789187 -0.06214873 21.0365413 -0.05758295 24.47558594 -0.04296875 C28.8787616 -0.02578751 33.28063153 -0.04926557 37.68366146 -0.08445835 C41.07325355 -0.10644037 44.46253365 -0.10498892 47.85217476 -0.09669304 C49.47526035 -0.09587381 51.09836892 -0.10273193 52.72138786 -0.11746407 C54.9934551 -0.13492477 57.26318233 -0.12035889 59.53515625 -0.09765625 C61.47230751 -0.09621361 61.47230751 -0.09621361 63.44859314 -0.09474182 C67.70659488 0.69576687 69.19011025 2.16821835 71.83227539 5.53344727 C72.57690779 9.50482007 72.20494417 10.9744441 69.95727539 14.34594727 C67.38082256 16.99817812 66.6189517 17.49538008 62.92997742 17.67388916 C61.68819229 17.68071716 60.44640717 17.68754517 59.16699219 17.69458008 C58.13984604 17.70202744 58.13984604 17.70202744 57.09194946 17.70962524 C54.82178753 17.72425497 52.55169551 17.73105074 50.28149414 17.73657227 C48.70449318 17.74232377 47.12749225 17.7480815 45.55049133 17.75384521 C42.24085158 17.764358 38.93123614 17.77019861 35.62158203 17.77368164 C31.38460015 17.77916207 27.14794034 17.80317904 22.91105938 17.83165359 C19.65193246 17.8502972 16.39288278 17.85548652 13.13370705 17.85701752 C11.57202204 17.86004151 10.01033832 17.86806155 8.44870567 17.8812027 C6.26080381 17.89829713 4.07368412 17.89637494 1.88574219 17.88989258 C0.64157028 17.89353821 -0.60260162 17.89718384 -1.88447571 17.90093994 C-5.44619723 17.50227794 -7.32722252 16.67919129 -10.16772461 14.53344727 C-11.73243694 11.40402261 -11.86474419 7.92262503 -11.16772461 4.53344727 C-7.89128118 0.18308717 -5.29774922 0.02544361 0 0 Z " fill="#000000" transform="translate(70.167724609375,288.466552734375)"/>
<path d="M0 0 C1.96223511 -0.01902626 1.96223511 -0.01902626 3.96411133 -0.03843689 C5.38883624 -0.03638553 6.81356008 -0.03339758 8.23828125 -0.02954102 C9.70272056 -0.0341031 11.16715774 -0.03940876 12.6315918 -0.04542542 C15.69816801 -0.05435357 18.76448375 -0.05193651 21.83105469 -0.04199219 C25.75887852 -0.03049542 29.68580428 -0.0507251 33.61351013 -0.07990932 C36.63673603 -0.09826279 39.65974629 -0.09798079 42.68301392 -0.0922718 C44.13108583 -0.09211852 45.57917229 -0.09816878 47.02719116 -0.11056328 C49.05193142 -0.12545441 51.07681954 -0.11217593 53.1015625 -0.09765625 C54.25309814 -0.09749008 55.40463379 -0.09732391 56.59106445 -0.09715271 C60.18579136 0.51158685 61.33380981 1.56898322 63.55078125 4.40405273 C64.89628161 7.81265364 64.65594303 9.12177639 63.36328125 12.59155273 C61.43073796 15.5903268 60.7864767 16.20253428 57.55078125 17.40405273 C54.74964905 17.66474915 54.74964905 17.66474915 51.48461914 17.67871094 C50.2597731 17.68824295 49.03492706 17.69777496 47.77296448 17.70759583 C46.45312057 17.70668442 45.13327667 17.70577301 43.7734375 17.70483398 C42.40107596 17.70872301 41.02871561 17.71305811 39.65635681 17.71781921 C36.78233943 17.72527332 33.90844491 17.72499608 31.03442383 17.71972656 C27.35794614 17.71393299 23.68197242 17.73086351 20.00557804 17.75407124 C17.17192156 17.76882887 14.3383859 17.76967755 11.5046978 17.76656151 C9.49229082 17.76732213 7.47990254 17.78117869 5.46754456 17.79524231 C4.23954636 17.78901352 3.01154816 17.78278473 1.74633789 17.77636719 C0.66808243 17.77699661 -0.41017303 17.77762604 -1.52110291 17.77827454 C-4.89110605 17.34757824 -6.73606741 16.4218174 -9.44921875 14.40405273 C-11.52832065 11.28539989 -11.73081249 10.86665751 -11.32421875 7.40405273 C-11.25976562 6.72342773 -11.1953125 6.04280273 -11.12890625 5.34155273 C-9.31588527 0.17340098 -4.84387835 0.02272739 0 0 Z " fill="#000000" transform="translate(52.44921875,162.595947265625)"/>
<path d="M0 0 C1.30066406 -0.01289063 2.60132813 -0.02578125 3.94140625 -0.0390625 C7.4375 0.625 7.4375 0.625 9.87109375 2.94140625 C11.92670202 6.46310919 12.02146871 8.61021514 11.4375 12.625 C9.21886971 15.53217073 7.91805071 16.46481643 4.4375 17.625 C-0.19327438 18.03313605 -4.26402375 18.19308336 -8.5625 16.3125 C-11.29108182 14.01025909 -12.46031778 12.29648316 -13 8.75 C-11.96955026 1.38964469 -6.66559085 -0.06619256 0 0 Z " fill="#000000" transform="translate(141.5625,162.375)"/>
</svg>
